# xmcd CD database file
#
# Track frame offsets:
#	150
#	30440
#	56992
#	76590
#	101470
#	127012
#	148887
#	179005
#	203232
#	222387
#	244757
#	265262
#
# Disc length: 3736 seconds
#
# Revision: 0
# Processed by: cddbd v1.5PL3 Copyright (c) Steve Scherf et al.
# Submitted via: CDex 1.50
#
DISCID=b30e960c
DTITLE=Ulf Meyer, Martin Wind, Jan-Peter Kloepfel - Fjord Songs
DYEAR=1997
DGENRE=Jazz
TTITLE0=Solitude
TTITLE1=Mother's  Waltz
TTITLE2=Blue Sunday
TTITLE3=Nobody Knows You When Your're Down And Out
TTITLE4=Sail Away
TTITLE5=Fjord Song
TTITLE6=Iceland Romance
TTITLE7=Marc's Moments
TTITLE8=En Yndig ig Frydefuld Sommertid
TTITLE9=The Crusade Groove
TTITLE10=Dat Du min Leevsten Buest
TTITLE11=Up And Away
EXTD=YEAR: 1997
EXTT0=
EXTT1=
EXTT2=
EXTT3=
EXTT4=
EXTT5=
EXTT6=
EXTT7=
EXTT8=
EXTT9=
EXTT10=
EXTT11=
PLAYORDER=
